<svg width="29" height="29" viewBox="0 0 29 29" fill="none" xmlns="http://www.w3.org/2000/svg">
<path d="M13.5691 0.0385725C15.3668 -0.135087 16.9738 0.275825 18.4389 1.308C21.0291 3.59981 24.0033 5.65682 26.5446 7.97798C27.7455 9.07375 28.5747 10.4826 28.6945 12.1409C28.9563 15.7608 28.5013 19.6988 28.6823 23.3505C28.4059 25.6276 26.8846 27.7042 24.6612 28.3964C23.5704 28.7364 20.9728 28.7339 19.789 28.6336C16.2693 28.3304 17.4385 23.507 17.2746 21.1394C16.9884 16.9642 11.7811 16.9936 11.4974 21.0758C11.3922 22.5751 11.7909 25.635 11.3066 26.8628C10.9397 27.7971 9.99315 28.5456 8.98055 28.6336C7.7527 28.7388 5.13558 28.7388 4.00558 28.3646C1.80426 27.6382 0.297583 25.5004 0.0774518 23.2282C0.270678 19.6058 -0.169585 15.7339 0.0774518 12.1409C0.160613 10.9277 0.713387 9.6412 1.49363 8.72154C4.38224 6.37591 7.28064 3.49464 10.2964 1.33735C11.2137 0.681845 12.4366 0.151084 13.5666 0.0410184L13.5691 0.0385725ZM5.62476 25.8086C6.50284 25.8967 7.66709 25.8086 8.57942 25.8086C8.58676 25.8086 8.6797 25.7157 8.6797 25.7083V20.3347C8.6797 19.7917 9.17622 18.5785 9.45016 18.0845C11.6344 14.1417 17.1425 14.1441 19.3267 18.0845C19.5933 18.5687 20.0972 19.8113 20.0972 20.3347V25.7083C20.0972 25.7083 20.1901 25.8086 20.1975 25.8086H23.1521C24.3408 25.8086 25.62 24.4903 25.7888 23.3407C25.7619 19.892 26.1092 16.1057 25.8769 12.6766C25.8133 11.7569 25.4806 10.8911 24.8007 10.26C22.1371 8.26415 19.674 5.77667 17.0031 3.81994C15.2396 2.5285 13.5397 2.5285 11.7787 3.81994C9.11018 5.77422 6.64715 8.27149 3.98112 10.26C3.47726 10.7272 3.14217 11.3558 2.99297 12.0235C3.01988 15.4722 2.67011 19.2585 2.90492 22.6877C3.01009 24.2408 3.9909 25.6423 5.62721 25.8086H5.62476Z" fill="#B8B8B8"/>
</svg>
